# This file uses centimeters as units for non-parametric coordinates.

mtllib button.mtl
g default
v -0.605901 -0.008308 0.183004
v -0.594228 -0.009094 0.196387
v -0.590596 0.000000 0.183695
v -0.216489 -0.009094 0.338449
v -0.197502 -0.009236 0.341925
v -0.195834 0.000000 0.313502
v -0.215277 0.000000 0.309622
v -0.621658 -0.008343 0.104113
v -0.619479 -0.008308 0.123355
v -0.604483 0.000000 0.122685
v -0.606945 0.000000 0.103241
v 0.197503 -0.009236 0.341925
v 0.216921 -0.009134 0.339733
v 0.215277 0.000000 0.311307
v 0.195834 0.000000 0.313502
v -0.195834 0.000000 0.103241
v -0.215277 0.000000 0.103241
v -0.215277 0.000000 0.128072
v -0.195834 0.000000 0.128072
v 0.601623 -0.009134 0.252741
v 0.612419 -0.008319 0.240325
v 0.597632 0.000000 0.240262
v 0.215277 0.000000 0.103241
v 0.195834 0.000000 0.103241
v 0.195834 0.000000 0.128072
v 0.215277 0.000000 0.128072
v 0.620935 -0.008319 0.123586
v 0.621658 -0.008343 0.104113
v 0.606945 0.000000 0.103241
v 0.606210 0.000000 0.122685
v -0.620693 -0.008314 -0.123559
v -0.621658 -0.008343 -0.104113
v -0.606945 0.000000 -0.103241
v -0.605947 0.000000 -0.122685
v -0.195834 0.000000 -0.092281
v -0.215277 0.000000 -0.092281
v -0.215277 0.000000 -0.103241
v -0.195834 0.000000 -0.103241
v 0.215277 0.000000 -0.092281
v 0.195834 0.000000 -0.092281
v 0.195834 0.000000 -0.103241
v 0.215277 0.000000 -0.103241
v 0.621658 -0.008343 -0.104113
v 0.620183 -0.008307 -0.123487
v 0.605365 0.000000 -0.122685
v 0.606945 0.000000 -0.103241
v -0.597619 -0.009138 -0.258584
v -0.608681 -0.008314 -0.246321
v -0.593876 0.000000 -0.246049
v -0.197502 -0.009236 -0.341925
v -0.216952 -0.009138 -0.339849
v -0.215277 0.000000 -0.275651
v -0.195834 0.000000 -0.277711
v 0.216791 -0.009118 -0.339289
v 0.197503 -0.009236 -0.341925
v 0.195834 0.000000 -0.277711
v 0.215277 0.000000 -0.274978
v 0.605204 -0.008307 -0.222584
v 0.593858 -0.009118 -0.235296
v 0.590245 0.000000 -0.222709
v -0.622922 -0.056982 0.204931
v -0.634179 -0.056982 0.192030
v -0.207197 -0.056982 0.357622
v -0.226018 -0.056982 0.354200
v -0.648598 -0.056982 0.128687
v -0.650755 -0.056982 0.109486
v 0.226401 -0.056982 0.355478
v 0.207197 -0.056982 0.357622
v 0.641055 -0.056982 0.252177
v 0.630865 -0.056982 0.264017
v 0.650755 -0.056982 0.109486
v 0.650048 -0.056982 0.128903
v -0.650755 -0.056982 -0.109486
v -0.649808 -0.056982 -0.128883
v 0.649302 -0.056982 -0.128820
v 0.650755 -0.056982 -0.109486
v -0.637131 -0.056982 -0.258442
v -0.626677 -0.056982 -0.270147
v 0.622650 -0.056982 -0.245724
v 0.633475 -0.056982 -0.233527
v -0.226426 -0.056982 -0.355593
v -0.207197 -0.056982 -0.357622
v 0.207197 -0.056982 -0.357622
v 0.226290 -0.056982 -0.355038
v -0.226018 -0.056982 0.354200
v -0.216489 -0.104870 0.338449
v -0.594228 -0.104870 0.196387
v -0.622922 -0.056982 0.204931
v -0.215277 -0.113964 0.324846
v -0.215277 -0.113964 0.122685
v -0.604483 -0.113964 0.122685
v -0.590596 -0.113964 0.183695
v -0.634179 -0.056982 0.192030
v -0.605901 -0.105656 0.183004
v -0.619479 -0.105656 0.123355
v -0.648598 -0.056982 0.128687
v 0.207197 -0.056982 0.357622
v 0.197503 -0.104729 0.341925
v -0.197502 -0.104729 0.341925
v -0.207197 -0.056982 0.357622
v 0.195834 -0.113964 0.329167
v 0.195834 -0.113964 0.122685
v -0.195834 -0.113964 0.122685
v -0.195834 -0.113964 0.329167
v -0.215277 -0.113964 0.103241
v -0.215277 -0.113964 -0.103241
v -0.606945 -0.113964 -0.103241
v -0.606945 -0.113964 0.103241
v -0.650755 -0.056982 0.109486
v -0.621658 -0.105621 0.104113
v -0.621658 -0.105621 -0.104113
v -0.650755 -0.056982 -0.109486
v 0.630865 -0.056982 0.264017
v 0.601623 -0.104831 0.252741
v 0.216921 -0.104831 0.339733
v 0.226401 -0.056982 0.355478
v 0.597632 -0.113964 0.240262
v 0.606210 -0.113964 0.122685
v 0.215277 -0.113964 0.122685
v 0.215277 -0.113964 0.326723
v 0.195834 -0.113964 0.103241
v 0.195834 -0.113964 -0.103241
v -0.195834 -0.113964 -0.103241
v -0.195834 -0.113964 0.103241
v 0.650048 -0.056982 0.128903
v 0.620935 -0.105645 0.123586
v 0.612419 -0.105645 0.240325
v 0.641055 -0.056982 0.252177
v 0.606945 -0.113964 0.103241
v 0.606945 -0.113964 -0.103241
v 0.215277 -0.113964 -0.103241
v 0.215277 -0.113964 0.103241
v 0.650755 -0.056982 -0.109486
v 0.621658 -0.105621 -0.104113
v 0.621658 -0.105621 0.104113
v 0.650755 -0.056982 0.109486
v -0.215277 -0.113964 -0.122685
v -0.215277 -0.113964 -0.326873
v -0.593876 -0.113964 -0.246049
v -0.605947 -0.113964 -0.122685
v -0.649808 -0.056982 -0.128883
v -0.620693 -0.105650 -0.123559
v -0.608681 -0.105650 -0.246321
v -0.637131 -0.056982 -0.258442
v 0.195834 -0.113964 -0.122685
v 0.195834 -0.113964 -0.329167
v -0.195834 -0.113964 -0.329167
v -0.195834 -0.113964 -0.122685
v 0.605365 -0.113964 -0.122685
v 0.590245 -0.113964 -0.222709
v 0.215277 -0.113964 -0.326123
v 0.215277 -0.113964 -0.122685
v 0.633475 -0.056982 -0.233527
v 0.605204 -0.105657 -0.222584
v 0.620183 -0.105657 -0.123487
v 0.649302 -0.056982 -0.128820
v -0.626677 -0.056982 -0.270147
v -0.597619 -0.104826 -0.258584
v -0.216952 -0.104826 -0.339849
v -0.226426 -0.056982 -0.355593
v -0.207197 -0.056982 -0.357622
v -0.197502 -0.104729 -0.341925
v 0.197503 -0.104729 -0.341925
v 0.207197 -0.056982 -0.357622
v 0.226290 -0.056982 -0.355038
v 0.216791 -0.104846 -0.339289
v 0.593858 -0.104846 -0.235296
v 0.622650 -0.056982 -0.245724
vt 0.045042 0.674640
vt 0.053748 0.667912
vt 0.132269 0.934616
vt 0.127547 0.954875
vt 0.061266 0.667057
vt 0.173007 0.667057
vt 0.173007 0.941856
vt 0.139285 0.932051
vt 0.134678 0.962823
vt 0.139667 0.942858
vt 0.172636 0.952444
vt 0.169689 0.973003
vt 0.043150 0.368768
vt 0.051826 0.375613
vt 0.051826 0.654507
vt 0.043150 0.661351
vt 0.058878 0.376791
vt 0.173007 0.376791
vt 0.173007 0.653329
vt 0.058878 0.653328
vt 0.183754 0.667057
vt 0.297883 0.667057
vt 0.297883 0.943594
vt 0.183754 0.943594
vt 0.180302 0.974527
vt 0.183272 0.953982
vt 0.298364 0.953982
vt 0.301334 0.974527
vt 0.094888 0.069636
vt 0.101121 0.090283
vt 0.053038 0.361902
vt 0.044335 0.355209
vt 0.108019 0.093100
vt 0.173007 0.087044
vt 0.173007 0.363063
vt 0.060229 0.363063
vt 0.183754 0.376791
vt 0.297883 0.376791
vt 0.297883 0.653329
vt 0.183754 0.653329
vt 0.169570 0.056092
vt 0.172509 0.076647
vt 0.107984 0.082660
vt 0.101433 0.062442
vt 0.183754 0.086525
vt 0.297883 0.086525
vt 0.297883 0.363063
vt 0.183754 0.363063
vt 0.301334 0.055593
vt 0.298364 0.076137
vt 0.183272 0.076137
vt 0.180302 0.055593
vt 0.308630 0.667057
vt 0.421490 0.667057
vt 0.376817 0.934367
vt 0.308630 0.942890
vt 0.312056 0.973858
vt 0.309113 0.953301
vt 0.376967 0.944820
vt 0.383666 0.964908
vt 0.308630 0.376791
vt 0.422758 0.376791
vt 0.422758 0.653329
vt 0.308630 0.653329
vt 0.308630 0.087641
vt 0.363916 0.098316
vt 0.421076 0.363063
vt 0.308630 0.363063
vt 0.369895 0.067794
vt 0.363847 0.087755
vt 0.309073 0.077178
vt 0.312021 0.056619
vt 0.390136 0.957526
vt 0.383745 0.937010
vt 0.428663 0.668239
vt 0.437364 0.674928
vt 0.438486 0.661351
vt 0.429810 0.654507
vt 0.429810 0.375613
vt 0.438486 0.368768
vt 0.437058 0.355287
vt 0.428353 0.361994
vt 0.370873 0.095765
vt 0.376637 0.075437
vt 0.953006 0.655480
vt 0.865435 0.916814
vt 0.860422 0.897921
vt 0.943765 0.649206
vt 0.935785 0.648408
vt 0.852976 0.895530
vt 0.817183 0.904674
vt 0.817183 0.648408
vt 0.857866 0.924226
vt 0.820705 0.933720
vt 0.817577 0.914547
vt 0.852571 0.905607
vt 0.955014 0.370237
vt 0.955014 0.643087
vt 0.945805 0.636704
vt 0.945805 0.376620
vt 0.938320 0.377719
vt 0.938320 0.635606
vt 0.817183 0.635605
vt 0.817183 0.377719
vt 0.805776 0.648408
vt 0.805776 0.906294
vt 0.684640 0.906294
vt 0.684640 0.648408
vt 0.809440 0.935140
vt 0.680976 0.935140
vt 0.684129 0.915982
vt 0.806288 0.915982
vt 0.900099 0.059187
vt 0.953756 0.357593
vt 0.944519 0.363834
vt 0.893484 0.078441
vt 0.886162 0.081068
vt 0.936886 0.364917
vt 0.817183 0.364917
vt 0.817183 0.075421
vt 0.805776 0.377719
vt 0.805776 0.635605
vt 0.684640 0.635606
vt 0.684640 0.377719
vt 0.820832 0.046556
vt 0.893152 0.052477
vt 0.886199 0.071332
vt 0.817712 0.065725
vt 0.805776 0.074937
vt 0.805776 0.364917
vt 0.684640 0.364917
vt 0.684640 0.074937
vt 0.680976 0.046090
vt 0.809440 0.046091
vt 0.806288 0.065249
vt 0.684129 0.065249
vt 0.673233 0.648408
vt 0.673233 0.905637
vt 0.600859 0.897689
vt 0.553442 0.648408
vt 0.669596 0.934517
vt 0.593588 0.926170
vt 0.600699 0.907437
vt 0.672720 0.915346
vt 0.673233 0.377719
vt 0.673233 0.635605
vt 0.552096 0.635606
vt 0.552096 0.377719
vt 0.673233 0.075977
vt 0.673233 0.364917
vt 0.553882 0.364917
vt 0.614552 0.085932
vt 0.608205 0.057468
vt 0.669633 0.047047
vt 0.672762 0.066220
vt 0.614625 0.076083
vt 0.586721 0.919287
vt 0.536593 0.655749
vt 0.545829 0.649511
vt 0.593505 0.900154
vt 0.535402 0.643087
vt 0.535402 0.370238
vt 0.544611 0.376620
vt 0.544611 0.636704
vt 0.536919 0.357665
vt 0.601050 0.064596
vt 0.607167 0.083553
vt 0.546158 0.363920
vn -0.321784 0.353013 0.878543
vn -0.322881 0.353087 0.878110
vn -0.299176 0.567451 0.767133
vn -0.347018 0.362083 0.865144
vn 0.000000 1.000000 0.000000
vn 0.000000 1.000000 0.000000
vn -0.012994 0.999912 0.002617
vn -0.019734 0.999064 0.038483
vn -0.803284 0.521102 0.288423
vn -0.758148 0.604410 0.244743
vn -0.774137 0.614210 0.153158
vn -0.837376 0.519569 0.169851
vn 0.005480 0.313308 0.949636
vn 0.004290 0.313093 0.949713
vn -0.007081 0.313594 0.949531
vn -0.008462 0.313841 0.949438
vn 0.000000 1.000000 0.000000
vn 0.000000 1.000000 0.000000
vn 0.000000 1.000000 0.000000
vn 0.000000 1.000000 0.000000
vn 0.000000 1.000000 0.000000
vn 0.000000 1.000000 0.000000
vn -0.023041 0.999735 -0.000089
vn -0.021421 0.999771 0.000202
vn -0.857674 0.514111 0.009284
vn -0.800430 0.599389 0.006663
vn -0.800596 0.599197 -0.002883
vn -0.857955 0.513709 -0.004105
vn 0.207214 0.342580 0.916352
vn 0.207214 0.342580 0.916352
vn 0.202537 0.342066 0.917589
vn 0.202642 0.342078 0.917562
vn 0.020511 0.998950 0.040958
vn 0.016672 0.999860 0.001123
vn 0.000000 1.000000 0.000000
vn 0.000000 1.000000 0.000000
vn 0.000000 1.000000 0.000000
vn 0.000000 1.000000 0.000000
vn 0.000000 1.000000 0.000000
vn 0.000000 1.000000 0.000000
vn 0.853851 0.517217 0.058528
vn 0.785077 0.617144 0.052788
vn 0.791512 0.602642 0.101644
vn 0.853476 0.517399 0.062262
vn 0.021324 0.999773 0.000061
vn 0.023056 0.999734 -0.000140
vn 0.000000 1.000000 0.000000
vn 0.000000 1.000000 0.000000
vn 0.857840 0.513879 -0.006279
vn 0.800537 0.599266 -0.004449
vn 0.800619 0.599170 0.002149
vn 0.858008 0.513627 0.003073
vn 0.000000 1.000000 0.000000
vn 0.000000 1.000000 0.000000
vn -0.018788 0.998861 -0.043869
vn -0.017652 0.999843 -0.001603
vn -0.851698 0.518121 -0.078499
vn -0.783618 0.617179 -0.070940
vn -0.789161 0.602554 -0.118971
vn -0.851132 0.518304 -0.083281
vn 0.000000 1.000000 0.000000
vn 0.000000 1.000000 0.000000
vn 0.000000 1.000000 0.000000
vn 0.000000 1.000000 0.000000
vn 0.016628 0.999859 -0.002306
vn 0.018558 0.998939 -0.042155
vn 0.000000 1.000000 0.000000
vn 0.000000 1.000000 0.000000
vn 0.824607 0.526331 -0.207361
vn 0.778383 0.605161 -0.167033
vn 0.780119 0.616335 -0.107447
vn 0.846280 0.519305 -0.118880
vn -0.196237 0.341337 -0.919228
vn -0.196237 0.341336 -0.919228
vn -0.191702 0.340821 -0.920376
vn -0.191878 0.340841 -0.920332
vn -0.005203 0.313258 -0.949654
vn -0.004048 0.313050 -0.949728
vn 0.005232 0.313263 -0.949652
vn 0.006531 0.313497 -0.949567
vn 0.243690 0.346422 -0.905874
vn 0.243918 0.346444 -0.905804
vn 0.249352 0.346962 -0.904124
vn 0.249352 0.346962 -0.904124
vn -0.127875 0.917969 0.375475
vn -0.133593 0.914847 0.381061
vn -0.002988 0.951167 0.308664
vn -0.002163 0.951136 0.308764
vn 0.001387 0.951098 0.308886
vn 0.001636 0.951106 0.308860
vn 0.079440 0.916215 0.392734
vn 0.077536 0.917846 0.389291
vn 0.136130 0.896663 0.421264
vn 0.637791 0.518888 0.569190
vn 0.637791 0.518888 0.569190
vn -0.068495 0.964808 -0.253879
vn -0.628085 0.516973 -0.581592
vn -0.628085 0.516973 -0.581592
vn -0.032147 0.974123 -0.223721
vn -0.031252 0.975005 -0.219973
vn -0.000533 0.989821 -0.142316
vn -0.000650 0.989823 -0.142306
vn 0.000882 0.989825 -0.142286
vn 0.000676 0.989823 -0.142303
vn 0.043646 0.975121 -0.217334
vn 0.045490 0.973869 -0.222507
vn 0.081112 0.964465 -0.251454
vn 0.636418 0.505203 -0.582874
vn -0.321784 -0.353013 0.878543
vn -0.347018 -0.362083 0.865144
vn -0.319221 -0.489272 0.811610
vn -0.322881 -0.353087 0.878110
vn 0.000000 -1.000000 0.000000
vn -0.018706 -0.999220 0.034786
vn -0.012262 -0.999922 0.002469
vn 0.000000 -1.000000 0.000000
vn -0.803284 -0.521103 0.288423
vn -0.837376 -0.519569 0.169851
vn -0.774137 -0.614210 0.153158
vn -0.758148 -0.604411 0.244743
vn 0.005480 -0.313308 0.949636
vn -0.008462 -0.313841 0.949438
vn -0.007081 -0.313594 0.949531
vn 0.004290 -0.313093 0.949713
vn 0.000000 -1.000000 0.000000
vn 0.000000 -1.000000 0.000000
vn 0.000000 -1.000000 0.000000
vn 0.000000 -1.000000 0.000000
vn 0.000000 -1.000000 0.000000
vn -0.021655 -0.999765 0.000204
vn -0.021578 -0.999767 -0.000083
vn 0.000000 -1.000000 0.000000
vn -0.857674 -0.514111 0.009284
vn -0.857955 -0.513709 -0.004105
vn -0.800596 -0.599198 -0.002883
vn -0.800430 -0.599389 0.006663
vn 0.207214 -0.342580 0.916352
vn 0.202642 -0.342078 0.917562
vn 0.202537 -0.342066 0.917589
vn 0.207214 -0.342580 0.916352
vn 0.019820 -0.999109 0.037248
vn 0.000000 -1.000000 0.000000
vn 0.000000 -1.000000 -0.000000
vn 0.015811 -0.999874 0.001065
vn 0.000000 -1.000000 0.000000
vn 0.000000 -1.000000 0.000000
vn 0.000000 -1.000000 0.000000
vn 0.000000 -1.000000 0.000000
vn 0.853851 -0.517217 0.058528
vn 0.853476 -0.517399 0.062262
vn 0.791512 -0.602642 0.101644
vn 0.785077 -0.617144 0.052788
vn 0.021565 -0.999767 0.000061
vn 0.000000 -1.000000 -0.000000
vn 0.000000 -1.000000 0.000000
vn 0.021609 -0.999766 -0.000131
vn 0.857840 -0.513879 -0.006279
vn 0.858008 -0.513627 0.003073
vn 0.800619 -0.599170 0.002149
vn 0.800537 -0.599266 -0.004449
vn 0.000000 -1.000000 0.000000
vn -0.016514 -0.999862 -0.001499
vn -0.019773 -0.999116 -0.037101
vn 0.000000 -1.000000 0.000000
vn -0.851698 -0.518121 -0.078499
vn -0.851132 -0.518304 -0.083281
vn -0.789161 -0.602554 -0.118971
vn -0.783618 -0.617179 -0.070940
vn 0.000000 -1.000000 0.000000
vn 0.000000 -1.000000 0.000000
vn 0.000000 -1.000000 0.000000
vn 0.000000 -1.000000 0.000000
vn 0.015366 -0.999880 -0.002131
vn 0.000000 -1.000000 0.000000
vn 0.000000 -1.000000 0.000000
vn 0.019206 -0.999177 -0.035724
vn 0.824608 -0.526330 -0.207361
vn 0.846280 -0.519304 -0.118880
vn 0.780120 -0.616335 -0.107447
vn 0.778384 -0.605160 -0.167033
vn -0.196237 -0.341337 -0.919228
vn -0.191878 -0.340841 -0.920332
vn -0.191702 -0.340821 -0.920376
vn -0.196237 -0.341337 -0.919228
vn -0.005203 -0.313258 -0.949654
vn 0.006531 -0.313497 -0.949567
vn 0.005232 -0.313263 -0.949652
vn -0.004048 -0.313050 -0.949728
vn 0.243690 -0.346422 -0.905874
vn 0.249352 -0.346962 -0.904124
vn 0.249352 -0.346962 -0.904124
vn 0.243918 -0.346444 -0.905804
vn -0.197549 -0.822723 0.533011
vn -0.193311 -0.822828 0.534402
vn -0.006013 -0.810938 0.585101
vn 0.003306 -0.810446 0.585805
vn 0.003059 -0.810415 0.585848
vn -0.004792 -0.810757 0.585363
vn 0.124247 -0.819275 0.559778
vn 0.194358 -0.797943 0.570536
vn 0.122759 -0.819240 0.560158
vn 0.637791 -0.518888 0.569190
vn 0.637792 -0.518888 0.569190
vn -0.628084 -0.516973 -0.581592
vn -0.628084 -0.516973 -0.581592
vn -0.188452 -0.796825 -0.574070
vn -0.116321 -0.818850 -0.562097
vn -0.117642 -0.818887 -0.561769
vn -0.002902 -0.810389 -0.585885
vn 0.003659 -0.810522 -0.585696
vn 0.004159 -0.810588 -0.585602
vn -0.003095 -0.810413 -0.585851
vn 0.147174 -0.820629 -0.552185
vn 0.215305 -0.797176 -0.564052
vn 0.149487 -0.820646 -0.551537
vn 0.636418 -0.505203 -0.582874
s 1
g pPlane2
usemtl lambert3SG
f 64/1/1 4/2/2 2/3/3 61/4/4
f 7/5/5 18/6/6 10/7/7 3/8/8
f 62/9/9 1/10/10 9/11/11 65/12/12
f 68/13/13 12/14/14 5/15/15 63/16/16
f 15/17/17 25/18/18 19/19/19 6/20/20
f 17/21/21 37/22/22 33/23/23 11/24/24
f 66/25/25 8/26/26 32/27/27 73/28/28
f 70/29/29 20/30/30 13/31/31 67/32/32
f 22/33/33 30/34/34 26/35/35 14/36/36
f 24/37/37 41/38/38 38/39/39 16/40/40
f 72/41/41 27/42/42 21/43/43 69/44/44
f 29/45/45 46/46/46 42/47/47 23/48/48
f 76/49/49 43/50/50 28/51/51 71/52/52
f 36/53/53 52/54/54 49/55/55 34/56/56
f 74/57/57 31/58/58 48/59/59 77/60/60
f 40/61/61 56/62/62 53/63/63 35/64/64
f 45/65/65 60/66/66 57/67/67 39/68/68
f 80/69/69 58/70/70 44/71/71 75/72/72
s 15
f 78/73/73 47/74/74 51/75/75 81/76/76
f 82/77/77 50/78/78 55/79/79 83/80/80
f 84/81/81 54/82/82 59/83/83 79/84/84
s 1
f 2/3/3 1/10/10 62/9/9 61/4/4
f 3/8/8 2/3/3 4/2/85 7/5/86
f 1/10/10 3/8/8 10/7/7 9/11/11
f 5/15/15 4/2/2 64/1/1 63/16/16
f 6/20/87 5/15/88 12/14/89 15/17/90
f 7/5/5 6/20/20 19/19/19 18/6/6
f 9/11/11 8/26/26 66/25/25 65/12/12
f 11/24/24 10/7/7 18/6/6 17/21/21
f 8/26/26 11/24/24 33/23/23 32/27/27
f 13/31/31 12/14/14 68/13/13 67/32/32
f 14/36/91 13/31/92 20/30/93 22/33/33
f 15/17/17 14/36/36 26/35/35 25/18/18
f 17/21/21 16/40/40 38/39/39 37/22/22
f 16/40/40 19/19/19 25/18/18 24/37/37
f 21/43/43 20/30/93 70/29/94 69/44/95
f 22/33/33 21/43/43 27/42/42 30/34/34
f 24/37/37 23/48/48 42/47/47 41/38/38
f 23/48/48 26/35/35 30/34/34 29/45/45
f 28/51/51 27/42/42 72/41/41 71/52/52
f 29/45/45 28/51/51 43/50/50 46/46/46
f 32/27/27 31/58/58 74/57/57 73/28/28
f 34/56/56 33/23/23 37/22/22 36/53/53
f 31/58/58 34/56/56 49/55/55 48/59/59
f 36/53/53 35/64/64 53/63/63 52/54/54
f 35/64/64 38/39/39 41/38/38 40/61/61
f 40/61/61 39/68/68 57/67/67 56/62/62
f 39/68/68 42/47/47 46/46/46 45/65/65
f 44/71/71 43/50/50 76/49/49 75/72/72
f 45/65/65 44/71/71 58/70/70 60/66/66
f 48/59/59 47/74/96 78/73/97 77/60/98
f 47/74/96 49/55/55 52/54/99 51/75/100
s 15
f 51/75/75 50/78/78 82/77/77 81/76/76
s 1
f 50/78/101 53/63/102 56/62/103 55/79/104
s 15
f 55/79/79 54/82/82 84/81/81 83/80/80
s 1
f 54/82/105 57/67/106 60/66/66 59/83/107
f 59/83/107 58/70/70 80/69/69 79/84/108
f 1/10/10 2/3/3 3/8/8
f 4/2/85 5/15/88 6/20/87 7/5/86
f 8/26/26 9/11/11 10/7/7 11/24/24
f 12/14/89 13/31/92 14/36/91 15/17/90
f 16/40/40 17/21/21 18/6/6 19/19/19
f 20/30/93 21/43/43 22/33/33
f 23/48/48 24/37/37 25/18/18 26/35/35
f 27/42/42 28/51/51 29/45/45 30/34/34
f 31/58/58 32/27/27 33/23/23 34/56/56
f 35/64/64 36/53/53 37/22/22 38/39/39
f 39/68/68 40/61/61 41/38/38 42/47/47
f 43/50/50 44/71/71 45/65/65 46/46/46
f 47/74/96 48/59/59 49/55/55
f 50/78/101 51/75/100 52/54/99 53/63/102
f 54/82/105 55/79/104 56/62/103 57/67/106
f 58/70/70 59/83/107 60/66/66
s 16
f 85/85/109 88/86/110 87/87/111 86/88/112
f 89/89/113 92/90/114 91/91/115 90/92/116
f 93/93/117 96/94/118 95/95/119 94/96/120
f 97/97/121 100/98/122 99/99/123 98/100/124
f 101/101/125 104/102/126 103/103/127 102/104/128
f 105/105/129 108/106/130 107/107/131 106/108/132
f 109/109/133 112/110/134 111/111/135 110/112/136
f 113/113/137 116/114/138 115/115/139 114/116/140
f 117/117/141 120/118/142 119/119/143 118/120/144
f 121/121/145 124/122/146 123/123/147 122/124/148
f 125/125/149 128/126/150 127/127/151 126/128/152
f 129/129/153 132/130/154 131/131/155 130/132/156
f 133/133/157 136/134/158 135/135/159 134/136/160
f 137/137/161 140/138/162 139/139/163 138/140/164
f 141/141/165 144/142/166 143/143/167 142/144/168
f 145/145/169 148/146/170 147/147/171 146/148/172
f 149/149/173 152/150/174 151/151/175 150/152/176
f 153/153/177 156/154/178 155/155/179 154/156/180
s 20
f 157/157/181 160/158/182 159/159/183 158/160/184
f 161/161/185 164/162/186 163/163/187 162/164/188
f 165/165/189 168/166/190 167/167/191 166/168/192
s 16
f 87/87/111 88/86/110 93/93/117 94/96/120
f 92/90/114 89/89/193 86/88/194 87/87/111
f 94/96/120 95/95/119 91/91/115 92/90/114
f 99/99/123 100/98/122 85/85/109 86/88/112
f 104/102/195 101/101/196 98/100/197 99/99/198
f 89/89/113 90/92/116 103/103/127 104/102/126
f 95/95/119 96/94/118 109/109/133 110/112/136
f 108/106/130 105/105/129 90/92/116 91/91/115
f 110/112/136 111/111/135 107/107/131 108/106/130
f 115/115/139 116/114/138 97/97/121 98/100/124
f 120/118/199 117/117/141 114/116/200 115/115/201
f 101/101/125 102/104/128 119/119/143 120/118/142
f 105/105/129 106/108/132 123/123/147 124/122/146
f 124/122/146 121/121/145 102/104/128 103/103/127
f 127/127/151 128/126/202 113/113/203 114/116/200
f 117/117/141 118/120/144 126/128/152 127/127/151
f 121/121/145 122/124/148 131/131/155 132/130/154
f 132/130/154 129/129/153 118/120/144 119/119/143
f 135/135/159 136/134/158 125/125/149 126/128/152
f 129/129/153 130/132/156 134/136/160 135/135/159
f 111/111/135 112/110/134 141/141/165 142/144/168
f 140/138/162 137/137/161 106/108/132 107/107/131
f 142/144/168 143/143/167 139/139/163 140/138/162
f 137/137/161 138/140/164 147/147/171 148/146/170
f 148/146/170 145/145/169 122/124/148 123/123/147
f 145/145/169 146/148/172 151/151/175 152/150/174
f 152/150/174 149/149/173 130/132/156 131/131/155
f 155/155/179 156/154/178 133/133/157 134/136/160
f 149/149/173 150/152/176 154/156/180 155/155/179
f 143/143/167 144/142/204 157/157/205 158/160/206
f 158/160/206 159/159/207 138/140/208 139/139/163
s 20
f 159/159/183 160/158/182 161/161/185 162/164/188
s 16
f 162/164/209 163/163/210 146/148/211 147/147/212
s 20
f 163/163/187 164/162/186 165/165/189 166/168/192
s 16
f 166/168/213 167/167/214 150/152/176 151/151/215
f 167/167/214 168/166/216 153/153/177 154/156/180
f 94/96/120 92/90/114 87/87/111
f 86/88/194 89/89/193 104/102/195 99/99/198
f 110/112/136 108/106/130 91/91/115 95/95/119
f 98/100/197 101/101/196 120/118/199 115/115/201
f 124/122/146 103/103/127 90/92/116 105/105/129
f 114/116/200 117/117/141 127/127/151
f 132/130/154 119/119/143 102/104/128 121/121/145
f 126/128/152 118/120/144 129/129/153 135/135/159
f 142/144/168 140/138/162 107/107/131 111/111/135
f 148/146/170 123/123/147 106/108/132 137/137/161
f 152/150/174 131/131/155 122/124/148 145/145/169
f 134/136/160 130/132/156 149/149/173 155/155/179
f 158/160/206 139/139/163 143/143/167
f 162/164/209 147/147/212 138/140/208 159/159/207
f 166/168/213 151/151/215 146/148/211 163/163/210
f 154/156/180 150/152/176 167/167/214
